{"title":"Transformers [2007] 720P BRRip [Dual-Audio] [Eng-Hindi]_Dip1990","uid":6091132,"size":2290220324,"categoryP":"video","categoryS":"hd___movies","magnet":"?xt=urn:btih:f295fe90d99cf091546d251888d079be6f2b9852&amp;dn=Transformers+%5B2007%5D+720P+BRRip+%5BDual-Audio%5D+%5BEng-Hindi%5D_Dip1990&amp;tr=udp%3A%2F%2Ftracker.openbittorrent.com%3A80&amp;tr=udp%3A%2F%2Fopen.demonii.com%3A1337&amp;tr=udp%3A%2F%2Ftracker.coppersurfer.tk%3A6969&amp;tr=udp%3A%2F%2Fexodus.desync.com%3A6969","seeders":1,"leechers":0,"uploader":"Dip1990","files":5,"time":1294569935,"description":"Dip1990\n\n\n\n\t\tTransformers [2007] [Dual-Audio] [English+Hindi]_Dip1990\n\n\nGeneral\nComplete name                    : Transformers [2007] [Dual-Audio]\nIMDB Rating                      : 7.4/10   165,623 votes\nFormat                           : Matroska\nFile size                        : 2.13 GiB\nDuration                         : 2h 23mn\nOverall bit rate                 : 2 128 Kbps\nEncoded date                     : UTC 2010-08-08 21:09:35\nWriting application              : mkvmerge v4.2.0 ('No Talking') built on Jul 28 2010 18:38:23\nWriting library                  : libebml v1.0.0 + libmatroska v1.0.0\n\nVideo\nID                               : 1\nFormat                           : AVC\nFormat/Info                      : Advanced Video Codec\nFormat profile                   : &lt;a class=&quot;__cf_email__&quot; href=&quot;/cdn-cgi/l/email-protection&quot; data-cfemail=&quot;fdb09c9493bdb1c9d3cc&quot;&gt;[email&amp;#160;protected]&lt;/a&gt;&lt;script cf-hash='f9e31' type=&quot;text/javascript&quot;&gt;\n/* &lt;![CDATA[ */!function(){try{var t=&quot;currentScript&quot;in document?document.currentScript:function(){for(var t=document.getElementsByTagName(&quot;script&quot;),e=t.length;e--;)if(t[e].getAttribute(&quot;cf-hash&quot;))return t[e]}();if(t&amp;&amp;t.previousSibling){var e,r,n,i,c=t.previousSibling,a=c.getAttribute(&quot;data-cfemail&quot;);if(a){for(e=&quot;&quot;,r=parseInt(a.substr(0,2),16),n=2;a.length-n;n+=2)i=parseInt(a.substr(n,2),16)^r,e+=String.fromCharCode(i);e=document.createTextNode(e),c.parentNode.replaceChild(e,c)}}}catch(u){}}();/* ]]&gt; */&lt;/script&gt;\nFormat settings, CABAC           : Yes\nFormat settings, ReFrames        : 3 frames\nMuxing mode                      : Container profile=&lt;a class=&quot;__cf_email__&quot; href=&quot;/cdn-cgi/l/email-protection&quot; data-cfemail=&quot;20754e4b4e4f574e60140e11&quot;&gt;[email&amp;#160;protected]&lt;/a&gt;&lt;script cf-hash='f9e31' type=&quot;text/javascript&quot;&gt;\n/* &lt;![CDATA[ */!function(){try{var t=&quot;currentScript&quot;in document?document.currentScript:function(){for(var t=document.getElementsByTagName(&quot;script&quot;),e=t.length;e--;)if(t[e].getAttribute(&quot;cf-hash&quot;))return t[e]}();if(t&amp;&amp;t.previousSibling){var e,r,n,i,c=t.previousSibling,a=c.getAttribute(&quot;data-cfemail&quot;);if(a){for(e=&quot;&quot;,r=parseInt(a.substr(0,2),16),n=2;a.length-n;n+=2)i=parseInt(a.substr(n,2),16)^r,e+=String.fromCharCode(i);e=document.createTextNode(e),c.parentNode.replaceChild(e,c)}}}catch(u){}}();/* ]]&gt; */&lt;/script&gt;\nCodec ID                         : V_MPEG4/ISO/AVC\nDuration                         : 2h 23mn\nBit rate                         : 1 820 Kbps\nWidth                            : 1 280 pixels\nHeight                           : 528 pixels\nDisplay aspect ratio             : 2.40:1\nFrame rate                       : 23.976 fps\nColor space                      : YUV\nChroma subsampling               : 4:2:0\nBit depth                        : 8 bits\nScan type                        : Progressive\nBits/(Pixel*Frame)               : 0.112\nStream size                      : 1.75 GiB (82%)\nTitle                            : Transformers\nWriting library                  : x264 core 67 r1169M ab85c9b\nEncoding settings                : cabac=1 / ref=3 / deblock=1:0:0 / analyse=0x1:0x111 / me=umh / subme=7 / psy_rd=1.0:0.0 / mixed_ref=1 / me_range=16 / chroma_me=1 / trellis=2 / 8x8dct=0 / cqm=0 / deadzone=21,11 / chroma_qp_offset=-2 / threads=3 / nr=0 / decimate=1 / mbaff=0 / bframes=3 / b_pyramid=0 / b_adapt=2 / b_bias=0 / direct=1 / wpredb=1 / keyint=250 / keyint_min=25 / scenecut=40 / rc=2pass / bitrate=1820 / ratetol=1.0 / qcomp=0.60 / qpmin=10 / qpmax=51 / qpstep=4 / cplxblur=20.0 / qblur=0.5 / ip_ratio=1.40 / pb_ratio=1.30 / aq=1:1.00\n\nAudio #1\nID                               : 2\nFormat                           : Vorbis\nFormat settings, Floor           : 1\nCodec ID                         : A_VORBIS\nDuration                         : 2h 23mn\nBit rate mode                    : Constant\nBit rate                         : 112 Kbps\nChannel(s)                       : 2 channels\nSampling rate                    : 48.0 KHz\nStream size                      : 115 MiB (5%)\nTitle                            : Transformers - English\nWriting library                  : aoTuV b5a  (UTC 2008-03-30)\n\nAudio #2\nID                               : 3\nFormat                           : Vorbis\nFormat settings, Floor           : 1\nCodec ID                         : A_VORBIS\nDuration                         : 2h 23mn\nBit rate mode                    : Constant\nBit rate                         : 224 Kbps\nChannel(s)                       : 2 channels\nSampling rate                    : 48.0 KHz\nStream size                      : 230 MiB (11%)\nTitle                            : Transformers - Hindi\nWriting library                  : aoTuV b5a  (UTC 2008-03-30)\nLanguage                         : Hindi\n\nScreens: &lt;a href=&quot;\nhttp://img703.imageshack.us/img703/2936/transformers2007720pbrr.jpg&quot; rel=&quot;nofollow&quot; target=&quot;_NEW&quot;&gt;\nhttp://img703.imageshack.us/img703/2936/transformers2007720pbrr.jpg&lt;/a&gt; &lt;a href=&quot;\nhttp://img341.imageshack.us/img341/2936/transformers2007720pbrr.jpg&quot; rel=&quot;nofollow&quot; target=&quot;_NEW&quot;&gt;\nhttp://img341.imageshack.us/img341/2936/transformers2007720pbrr.jpg&lt;/a&gt; &lt;a href=&quot;\nhttp://img263.imageshack.us/img263/2936/transformers2007720pbrr.jpg&quot; rel=&quot;nofollow&quot; target=&quot;_NEW&quot;&gt;\nhttp://img263.imageshack.us/img263/2936/transformers2007720pbrr.jpg&lt;/a&gt; &lt;a href=&quot;\nhttp://img218.imageshack.us/img218/2936/transformers2007720pbrr.jpg&quot; rel=&quot;nofollow&quot; target=&quot;_NEW&quot;&gt;\nhttp://img218.imageshack.us/img218/2936/transformers2007720pbrr.jpg&lt;/a&gt; &lt;a href=&quot;\nhttp://img26.imageshack.us/img26/2936/transformers2007720pbrr.jpg&quot; rel=&quot;nofollow&quot; target=&quot;_NEW&quot;&gt;\nhttp://img26.imageshack.us/img26/2936/transformers2007720pbrr.jpg&lt;/a&gt; &lt;a href=&quot;\nhttp://img695.imageshack.us/img695/2936/transformers2007720pbrr.jpg&quot; rel=&quot;nofollow&quot; target=&quot;_NEW&quot;&gt;\nhttp://img695.imageshack.us/img695/2936/transformers2007720pbrr.jpg&lt;/a&gt; &lt;a href=&quot;\nhttp://img843.imageshack.us/img843/2936/transformers2007720pbrr.jpg&quot; rel=&quot;nofollow&quot; target=&quot;_NEW&quot;&gt;\nhttp://img843.imageshack.us/img843/2936/transformers2007720pbrr.jpg&lt;/a&gt;\n\nSample:\n","torrent":{"xt":"urn:btih:f295fe90d99cf091546d251888d079be6f2b9852","amp;dn":"Transformers+%5B2007%5D+720P+BRRip+%5BDual-Audio%5D+%5BEng-Hindi%5D_Dip1990","amp;tr":["udp%3A%2F%2Ftracker.openbittorrent.com%3A80","udp%3A%2F%2Fopen.demonii.com%3A1337","udp%3A%2F%2Ftracker.coppersurfer.tk%3A6969","udp%3A%2F%2Fexodus.desync.com%3A6969"],"infoHash":"f295fe90d99cf091546d251888d079be6f2b9852","infoHashBuffer":{"type":"Buffer","data":[242,149,254,144,217,156,240,145,84,109,37,24,136,208,121,190,111,43,152,82]},"announce":[],"urlList":[]}}